<svg xmlns="http://www.w3.org/2000/svg" id="Layer_1" data-name="Layer 1" viewBox="0 0 505.07 584"><defs><style>.cls-1{fill:none;stroke:#000;stroke-linecap:round;stroke-linejoin:round;stroke-width:45px}</style></defs><path d="M292 561.5C143.16 561.5 22.5 440.84 22.5 292S143.16 22.5 292 22.5" class="cls-1"/><path d="M429.52 430.13C394.49 465.26 346.04 487 292.5 487 185.63 487 99 400.37 99 293.5S185.63 100 292.5 100c52.77 0 100.6 21.12 135.51 55.37" class="cls-1"/><path d="M292 561.5C143.16 561.5 22.5 440.84 22.5 292S143.16 22.5 292 22.5" class="cls-1"/><path d="M482.57 482.57C433.8 531.34 366.43 561.5 292 561.5 143.16 561.5 22.5 440.84 22.5 292S143.16 22.5 292 22.5c74.26 0 141.51 30.04 190.26 78.63" class="cls-1"/><path d="m292.71 292.71 82.02-82.02-.35-1.06c-45.5-45.5-119.26-45.5-164.76 0-45.5 45.5-45.5 119.26 0 164.76 45.5 45.5 119.26 45.5 164.76 0" class="cls-1"/></svg>