<svg xmlns="http://www.w3.org/2000/svg" version="1.1" xmlns:xlink="http://www.w3.org/1999/xlink" xmlns:svgjs="http://svgjs.com/svgjs" width="505.07" height="584"><svg id="SvgjsSvg1000" data-name="Layer 1" xmlns="http://www.w3.org/2000/svg" viewBox="0 0 505.07 584">
  <defs>
    <style>
      .cls-1 {
        fill: none;
        stroke: #000;
        stroke-linecap: round;
        stroke-linejoin: round;
        stroke-width: 45px;
      }
    </style>
  </defs>
  <path class="cls-1" d="M292,561.5c-148.84,0-269.5-120.66-269.5-269.5S143.16,22.5,292,22.5"></path>
  <path class="cls-1" d="M429.52,430.13c-35.03,35.13-83.48,56.87-137.02,56.87-106.87,0-193.5-86.63-193.5-193.5s86.63-193.5,193.5-193.5c52.77,0,100.6,21.12,135.51,55.37"></path>
  <path class="cls-1" d="M292,561.5c-148.84,0-269.5-120.66-269.5-269.5S143.16,22.5,292,22.5"></path>
  <path class="cls-1" d="M482.57,482.57c-48.77,48.77-116.14,78.93-190.57,78.93-148.84,0-269.5-120.66-269.5-269.5S143.16,22.5,292,22.5c74.26,0,141.51,30.04,190.26,78.63"></path>
  <path class="cls-1" d="M292.71,292.71l82.02-82.02-.35-1.06c-45.5-45.5-119.26-45.5-164.76,0-45.5,45.5-45.5,119.26,0,164.76,45.5,45.5,119.26,45.5,164.76,0"></path>
</svg><style>@media (prefers-color-scheme: light) { :root { filter: none; } }
</style></svg>